<svg fill="#000000" xmlns="http://www.w3.org/2000/svg"  viewBox="0 0 50 50" width="50px" height="50px"><path d="M 25 2 C 12.308594 2 2 12.308594 2 25 C 2 37.691406 12.308594 48 25 48 C 37.691406 48 48 37.691406 48 25 C 48 12.308594 37.691406 2 25 2 Z M 25 4 C 36.609375 4 46 13.390625 46 25 C 46 36.609375 36.609375 46 25 46 C 13.390625 46 4 36.609375 4 25 C 4 13.390625 13.390625 4 25 4 Z M 25 8 C 15.621094 8 8 15.621094 8 25 C 8 34.378906 15.621094 42 25 42 C 34.378906 42 42 34.378906 42 25 C 42 15.621094 34.378906 8 25 8 Z M 25 10 C 33.296875 10 40 16.703125 40 25 C 40 33.296875 33.296875 40 25 40 C 16.703125 40 10 33.296875 10 25 C 10 16.703125 16.703125 10 25 10 Z M 21.8125 15 L 21.8125 21 L 23.40625 22.59375 L 21.8125 24.21875 L 21.8125 35 L 28.1875 35 L 28.1875 29 L 26.59375 27.40625 L 28.1875 25.78125 L 28.1875 15 Z"/></svg>